<svg xmlns="http://www.w3.org/2000/svg" viewBox="0 0 1509 899" width="1509" height="899" font-family="-apple-system, BlinkMacSystemFont, 'Segoe UI', 'Inter', system-ui, sans-serif" fill="#0f172a">
<rect width="1509" height="899" fill="#ffffff"/>
<rect x="0" y="0" width="200" height="899" fill="#fafafa" rx="0"/>
<line x1="200" y1="0" x2="200" y2="899" stroke="#e5e7eb" stroke-width="1"/>
<circle cx="33.0" cy="35.0" r="11.0" fill="#2563eb"/>
<circle cx="33.0" cy="35.0" r="8.0" fill="#3b82f6"/>
<circle cx="33.0" cy="35.0" r="4.0" fill="#dbeafe"/>
<circle cx="33.0" cy="35.0" r="1.6" fill="#1e3a8a"/>
<text x="54" y="41" font-size="15" fill="#0f172a" font-weight="600">Optikk</text>
<text x="22" y="86" font-size="10" fill="#94a3b8" font-weight="600" letter-spacing="1.2">OBSERVE</text>
<rect x="22" y="104" width="7" height="7" fill="none" rx="1" stroke="#475569" stroke-width="1.4"/>
<rect x="31" y="104" width="7" height="7" fill="none" rx="1" stroke="#475569" stroke-width="1.4"/>
<rect x="22" y="113" width="7" height="7" fill="none" rx="1" stroke="#475569" stroke-width="1.4"/>
<rect x="31" y="113" width="7" height="7" fill="none" rx="1" stroke="#475569" stroke-width="1.4"/>
<text x="48" y="116" font-size="13" fill="#475569" font-weight="500">Overview</text>
<rect x="22" y="140" width="16" height="12" fill="none" rx="2" stroke="#475569" stroke-width="1.4"/>
<line x1="25" y1="144" x2="35" y2="144" stroke="#475569" stroke-width="1.4"/>
<line x1="25" y1="147" x2="31" y2="147" stroke="#475569" stroke-width="1.4"/>
<text x="48" y="150" font-size="13" fill="#475569" font-weight="500">Service</text>
<line x1="23" y1="186" x2="23" y2="177" stroke="#475569" stroke-width="1.6"/>
<line x1="28" y1="186" x2="28" y2="181" stroke="#475569" stroke-width="1.6"/>
<line x1="33" y1="186" x2="33" y2="174" stroke="#475569" stroke-width="1.6"/>
<line x1="22" y1="187" x2="37" y2="187" stroke="#475569" stroke-width="1.6"/>
<text x="48" y="184" font-size="13" fill="#475569" font-weight="500">Metrics</text>
<rect x="22" y="207" width="16" height="14" fill="none" rx="2" stroke="#475569" stroke-width="1.4"/>
<line x1="25" y1="211" x2="35" y2="211" stroke="#475569" stroke-width="1.4"/>
<line x1="25" y1="214" x2="35" y2="214" stroke="#475569" stroke-width="1.4"/>
<line x1="25" y1="217" x2="32" y2="217" stroke="#475569" stroke-width="1.4"/>
<text x="48" y="218" font-size="13" fill="#475569" font-weight="500">Logs</text>
<line x1="22" y1="244" x2="31" y2="244" stroke="#475569" stroke-width="1.6"/>
<line x1="25" y1="249" x2="35" y2="249" stroke="#475569" stroke-width="1.6"/>
<line x1="28" y1="254" x2="38" y2="254" stroke="#475569" stroke-width="1.6"/>
<text x="48" y="252" font-size="13" fill="#475569" font-weight="500">Traces</text>
<text x="22" y="288" font-size="10" fill="#94a3b8" font-weight="600" letter-spacing="1.2">OPERATE</text>
<rect x="8" y="298" width="184" height="30" fill="#eef0f3" rx="6"/>
<path d="M 22 319 A 8 8 0 0 1 38 319" fill="none" stroke-linecap="round" stroke-linejoin="round" stroke="#0f172a" stroke-width="1.6"/>
<line x1="30" y1="319" x2="35" y2="312" stroke="#0f172a" stroke-width="1.6"/>
<circle cx="30" cy="319" r="1.4" fill="#0f172a"/>
<text x="48" y="318" font-size="13" fill="#0f172a" font-weight="600">Saturation</text>
<rect x="22" y="341" width="16" height="5" fill="none" rx="1" stroke="#475569" stroke-width="1.4"/>
<rect x="22" y="349" width="16" height="5" fill="none" rx="1" stroke="#475569" stroke-width="1.4"/>
<circle cx="25" cy="343.5" r="0.9" fill="#475569"/>
<circle cx="25" cy="351.5" r="0.9" fill="#475569"/>
<text x="48" y="352" font-size="13" fill="#475569" font-weight="500">Infrastructure</text>
<rect x="201" y="0" width="1308" height="58" fill="#ffffff" rx="0"/>
<line x1="201" y1="58" x2="1509" y2="58" stroke="#e5e7eb" stroke-width="1"/>
<path d="M 224 25 L 220 29 L 224 33" fill="none" stroke-linecap="round" stroke-linejoin="round" stroke="#64748b" stroke-width="1.6"/>
<rect x="251" y="14" width="200" height="30" fill="#ffffff" rx="15" stroke="#e5e7eb" stroke-width="1"/>
<circle cx="269" cy="29" r="7" fill="none" stroke="#64748b" stroke-width="1.4"/>
<line x1="269" y1="29" x2="269" y2="25" stroke="#64748b" stroke-width="1.4"/>
<line x1="269" y1="29" x2="273" y2="29" stroke="#64748b" stroke-width="1.4"/>
<text x="285" y="33" font-size="13" fill="#0f172a" font-weight="500">Last 1 hour</text>
<path d="M 433 27 L 437 31 L 441 27" fill="none" stroke-linecap="round" stroke-linejoin="round" stroke="#64748b" stroke-width="1.6"/>
<path d="M 468 25 L 472 29 L 468 33" fill="none" stroke-linecap="round" stroke-linejoin="round" stroke="#64748b" stroke-width="1.6"/>
<rect x="491" y="16" width="78" height="26" fill="#ffffff" rx="13" stroke="#10b981" stroke-width="1"/>
<circle cx="505" cy="29" r="5" fill="#10b981"/>
<text x="517" y="33" font-size="12" fill="#10b981" font-weight="700">LIVE</text>
<text x="1104" y="33" font-size="10" fill="#94a3b8" font-weight="600" letter-spacing="1.2">WORKSPACE</text>
<text x="1209" y="33" font-size="13" fill="#0f172a" font-weight="500">My-Organization / My Team</text>
<path d="M 1395 27 L 1399 31 L 1403 27" fill="none" stroke-linecap="round" stroke-linejoin="round" stroke="#64748b" stroke-width="1.6"/>
<path d="M 1431 29 a 8 8 0 1 0 2 -5" fill="none" stroke-linecap="round" stroke-linejoin="round" stroke="#64748b" stroke-width="1.4"/>
<path d="M 1433 23 l 0 4 l -4 0" fill="none" stroke-linecap="round" stroke-linejoin="round" stroke="#64748b" stroke-width="1.4"/>
<text x="1459" y="33" font-size="13" fill="#0f172a" font-weight="500">5s</text>
<path d="M 1483 27 L 1487 31 L 1491 27" fill="none" stroke-linecap="round" stroke-linejoin="round" stroke="#64748b" stroke-width="1.6"/>
<rect x="232" y="78" width="40" height="40" fill="#eef2ff" rx="8"/>
<path d="M 243 90 L 243 96 L 247 100 L 247 94 Z" fill="#6366f1" stroke-linecap="round" stroke-linejoin="round"/>
<path d="M 251 96 L 251 102 L 255 106 L 255 100 Z" fill="#818cf8" stroke-linecap="round" stroke-linejoin="round"/>
<path d="M 259 90 L 259 96 L 263 100 L 263 94 Z" fill="#6366f1" stroke-linecap="round" stroke-linejoin="round"/>
<text x="288" y="102" font-size="24" fill="#0f172a" font-weight="700">Saturation</text>
<text x="288" y="123" font-size="12.5" fill="#64748b" font-weight="400">34 hosts  ·  5 subsystems  ·  18 active alerts</text>
<rect x="552" y="90" width="147" height="22" fill="#fee2e2" rx="11"/>
<circle cx="562" cy="101" r="3.5" fill="#ef4444"/>
<text x="572" y="105" font-size="11.5" fill="#991b1b" font-weight="600">3 error · 15 warn</text>
<text x="1407" y="108" font-size="12.5" fill="#334155" font-weight="500">Export</text>
<path d="M 1381 100 l 0 8 m -3 -3 l 3 3 l 3 -3 m -7 5 l 8 0" fill="none" stroke-linecap="round" stroke-linejoin="round" stroke="#334155" stroke-width="1.4"/>
<path d="M 1349 102 a 7 7 0 1 0 2 -5 m 0 5 l 0 -5 l 5 0" fill="none" stroke-linecap="round" stroke-linejoin="round" stroke="#334155" stroke-width="1.4"/>
<text x="232" y="142" font-size="14" fill="#1d4ed8" font-weight="600">Overview</text>
<line x1="228" y1="150" x2="300" y2="150" stroke="#1d4ed8" stroke-width="2"/>
<text x="324" y="142" font-size="14" fill="#334155" font-weight="500">Kafka</text>
<rect x="371" y="131" width="18" height="16" fill="#fde2e2" rx="8"/>
<text x="380" y="143" font-size="10.5" fill="#991b1b" font-weight="600" text-anchor="middle">1</text>
<text x="423" y="142" font-size="14" fill="#334155" font-weight="500">Database</text>
<rect x="491" y="131" width="18" height="16" fill="#fde2e2" rx="8"/>
<text x="500" y="143" font-size="10.5" fill="#991b1b" font-weight="600" text-anchor="middle">2</text>
<text x="543" y="142" font-size="14" fill="#334155" font-weight="500">Redis</text>
<rect x="590" y="131" width="18" height="16" fill="#fde2e2" rx="8"/>
<text x="599" y="143" font-size="10.5" fill="#991b1b" font-weight="600" text-anchor="middle">1</text>
<text x="642" y="142" font-size="14" fill="#334155" font-weight="500">Queues</text>
<rect x="696" y="131" width="18" height="16" fill="#fde2e2" rx="8"/>
<text x="705" y="143" font-size="10.5" fill="#991b1b" font-weight="600" text-anchor="middle">2</text>
<text x="748" y="142" font-size="14" fill="#334155" font-weight="500">Storage</text>
<line x1="232" y1="156" x2="1477" y2="156" stroke="#e5e7eb" stroke-width="1"/>
<rect x="232.0" y="178" width="299.25" height="168" fill="#ffffff" rx="8" stroke="#e5e7eb" stroke-width="1"/>
<rect x="248.0" y="196" width="22" height="22" fill="#eff6ff" rx="4"/>
<line x1="254.0" y1="202" x2="254.0" y2="214" stroke="#3b82f6" stroke-width="1.6"/>
<line x1="254.0" y1="208" x2="263.0" y2="202" stroke="#3b82f6" stroke-width="1.6"/>
<line x1="254.0" y1="208" x2="263.0" y2="214" stroke="#3b82f6" stroke-width="1.6"/>
<text x="280.0" y="212" font-size="15.5" fill="#0f172a" font-weight="600">Kafka</text>
<rect x="403.25" y="200" width="112" height="20" fill="#fef3c7" rx="10"/>
<circle cx="413.25" cy="210" r="3" fill="#eab308"/>
<text x="421.25" y="214" font-size="10.5" fill="#92400e" font-weight="600">1 broker hot</text>
<text x="248.0" y="236" font-size="11.5" fill="#64748b" font-weight="400">9 brokers · 142 topics</text>
<text x="248.0" y="270" font-size="26" fill="#0f172a" font-weight="700">84.3k</text>
<text x="336.0" y="270" font-size="12.5" fill="#64748b" font-weight="400">msgs/s in</text>
<text x="248.0" y="288" font-size="11" fill="#94a3b8" font-weight="400">12 under-replicated</text>
<path d="M 248.0 321.6 L 259.6 319.8 L 271.2 318.0 L 282.9 316.2 L 294.5 314.4 L 306.1 316.2 L 317.7 318.0 L 329.3 316.2 L 341.0 312.6 L 352.6 310.8 L 364.2 307.2 L 375.8 310.8 L 387.4 314.4 L 399.1 316.2 L 410.7 318.0 L 422.3 316.2 L 433.9 314.4 L 445.5 316.2 L 457.2 318.0 L 468.8 319.8 L 480.4 318.0 L 492.0 316.2 L 503.6 318.0 L 515.2 319.8 L 515.2 336.0 L 248.0 336.0 Z" fill="#dbeafe" stroke-linecap="round" stroke-linejoin="round" opacity="0.6"/>
<path d="M 248.0 321.6 L 259.6 319.8 L 271.2 318.0 L 282.9 316.2 L 294.5 314.4 L 306.1 316.2 L 317.7 318.0 L 329.3 316.2 L 341.0 312.6 L 352.6 310.8 L 364.2 307.2 L 375.8 310.8 L 387.4 314.4 L 399.1 316.2 L 410.7 318.0 L 422.3 316.2 L 433.9 314.4 L 445.5 316.2 L 457.2 318.0 L 468.8 319.8 L 480.4 318.0 L 492.0 316.2 L 503.6 318.0 L 515.2 319.8" fill="none" stroke-linecap="round" stroke-linejoin="round" stroke="#3b82f6" stroke-width="1.5"/>
<rect x="547.25" y="178" width="299.25" height="168" fill="#ffffff" rx="8" stroke="#e5e7eb" stroke-width="1"/>
<rect x="563.25" y="196" width="22" height="22" fill="#eff6ff" rx="4"/>
<path d="M 567.25 202 a 7 3 0 1 0 14 0 l 0 8 a 7 3 0 1 1 -14 0 z" fill="none" stroke-linecap="round" stroke-linejoin="round" stroke="#3b82f6" stroke-width="1.4"/>
<path d="M 567.25 206 a 7 3 0 1 0 14 0" fill="none" stroke-linecap="round" stroke-linejoin="round" stroke="#3b82f6" stroke-width="1.4"/>
<text x="595.25" y="212" font-size="15.5" fill="#0f172a" font-weight="600">Database</text>
<rect x="683.5" y="200" width="147" height="20" fill="#fef3c7" rx="10"/>
<circle cx="693.5" cy="210" r="3" fill="#eab308"/>
<text x="701.5" y="214" font-size="10.5" fill="#92400e" font-weight="600">replica-3 lagging</text>
<text x="563.25" y="236" font-size="11.5" fill="#64748b" font-weight="400">checkout-prod · 4 nodes</text>
<text x="563.25" y="270" font-size="26" fill="#0f172a" font-weight="700">14.8k</text>
<text x="651.25" y="270" font-size="12.5" fill="#64748b" font-weight="400">qps · 42.8ms p99</text>
<text x="563.25" y="288" font-size="11" fill="#94a3b8" font-weight="400">repl lag 0.14s</text>
<path d="M 563.2 321.6 L 574.9 320.9 L 586.5 319.8 L 598.1 318.0 L 609.7 316.2 L 621.3 314.4 L 633.0 316.2 L 644.6 318.0 L 656.2 316.2 L 667.8 314.4 L 679.4 310.8 L 691.1 312.6 L 702.7 316.2 L 714.3 318.0 L 725.9 319.8 L 737.5 318.0 L 749.2 316.2 L 760.8 318.0 L 772.4 319.8 L 784.0 321.6 L 795.6 319.8 L 807.3 318.0 L 818.9 319.8 L 830.5 321.6 L 830.5 336.0 L 563.2 336.0 Z" fill="#dbeafe" stroke-linecap="round" stroke-linejoin="round" opacity="0.6"/>
<path d="M 563.2 321.6 L 574.9 320.9 L 586.5 319.8 L 598.1 318.0 L 609.7 316.2 L 621.3 314.4 L 633.0 316.2 L 644.6 318.0 L 656.2 316.2 L 667.8 314.4 L 679.4 310.8 L 691.1 312.6 L 702.7 316.2 L 714.3 318.0 L 725.9 319.8 L 737.5 318.0 L 749.2 316.2 L 760.8 318.0 L 772.4 319.8 L 784.0 321.6 L 795.6 319.8 L 807.3 318.0 L 818.9 319.8 L 830.5 321.6" fill="none" stroke-linecap="round" stroke-linejoin="round" stroke="#3b82f6" stroke-width="1.5"/>
<rect x="862.5" y="178" width="299.25" height="168" fill="#ffffff" rx="8" stroke="#e5e7eb" stroke-width="1"/>
<rect x="878.5" y="196" width="22" height="22" fill="#eff6ff" rx="4"/>
<circle cx="889.5" cy="207" r="7" fill="none" stroke="#3b82f6" stroke-width="1.4"/>
<circle cx="889.5" cy="207" r="2" fill="#3b82f6"/>
<text x="910.5" y="212" font-size="15.5" fill="#0f172a" font-weight="600">Redis</text>
<rect x="1005.75" y="200" width="140" height="20" fill="#fef3c7" rx="10"/>
<circle cx="1015.75" cy="210" r="3" fill="#eab308"/>
<text x="1023.75" y="214" font-size="10.5" fill="#92400e" font-weight="600">shard-1 evicting</text>
<text x="878.5" y="236" font-size="11.5" fill="#64748b" font-weight="400">3 shards · 6 nodes</text>
<text x="878.5" y="270" font-size="26" fill="#0f172a" font-weight="700">184.8k</text>
<text x="983.5" y="270" font-size="12.5" fill="#64748b" font-weight="400">ops/s · 97.8% hit</text>
<text x="878.5" y="288" font-size="11" fill="#94a3b8" font-weight="400">142/s evictions</text>
<path d="M 878.5 318.0 L 890.1 316.2 L 901.7 314.4 L 913.4 316.2 L 925.0 318.0 L 936.6 319.8 L 948.2 318.0 L 959.8 316.2 L 971.5 314.4 L 983.1 312.6 L 994.7 310.8 L 1006.3 312.6 L 1017.9 314.4 L 1029.6 316.2 L 1041.2 318.0 L 1052.8 316.2 L 1064.4 314.4 L 1076.0 316.2 L 1087.7 318.0 L 1099.3 319.8 L 1110.9 318.0 L 1122.5 316.2 L 1134.1 318.0 L 1145.8 318.0 L 1145.8 336.0 L 878.5 336.0 Z" fill="#dbeafe" stroke-linecap="round" stroke-linejoin="round" opacity="0.6"/>
<path d="M 878.5 318.0 L 890.1 316.2 L 901.7 314.4 L 913.4 316.2 L 925.0 318.0 L 936.6 319.8 L 948.2 318.0 L 959.8 316.2 L 971.5 314.4 L 983.1 312.6 L 994.7 310.8 L 1006.3 312.6 L 1017.9 314.4 L 1029.6 316.2 L 1041.2 318.0 L 1052.8 316.2 L 1064.4 314.4 L 1076.0 316.2 L 1087.7 318.0 L 1099.3 319.8 L 1110.9 318.0 L 1122.5 316.2 L 1134.1 318.0 L 1145.8 318.0" fill="none" stroke-linecap="round" stroke-linejoin="round" stroke="#3b82f6" stroke-width="1.5"/>
<rect x="1177.75" y="178" width="299.25" height="168" fill="#ffffff" rx="8" stroke="#e5e7eb" stroke-width="1"/>
<rect x="1193.75" y="196" width="22" height="22" fill="#eff6ff" rx="4"/>
<line x1="1197.75" y1="203" x2="1211.75" y2="203" stroke="#3b82f6" stroke-width="1.4"/>
<line x1="1197.75" y1="208" x2="1211.75" y2="208" stroke="#3b82f6" stroke-width="1.4"/>
<line x1="1197.75" y1="213" x2="1211.75" y2="213" stroke="#3b82f6" stroke-width="1.4"/>
<text x="1225.75" y="212" font-size="15.5" fill="#0f172a" font-weight="600">Queues</text>
<rect x="1370.0" y="200" width="91" height="20" fill="#fef3c7" rx="10"/>
<circle cx="1380.0" cy="210" r="3" fill="#eab308"/>
<text x="1388.0" y="214" font-size="10.5" fill="#92400e" font-weight="600">oldest 5m</text>
<text x="1193.75" y="236" font-size="11.5" fill="#64748b" font-weight="400">sidekiq-prod · 142 workers</text>
<text x="1193.75" y="270" font-size="26" fill="#0f172a" font-weight="700">184.8k</text>
<text x="1298.75" y="270" font-size="12.5" fill="#64748b" font-weight="400">depth · oldest 5m</text>
<text x="1193.75" y="288" font-size="11" fill="#94a3b8" font-weight="400">2.8k in DLQ</text>
<path d="M 1193.8 328.8 L 1205.4 328.1 L 1217.0 327.0 L 1228.6 325.9 L 1240.2 325.2 L 1251.8 324.5 L 1263.5 323.4 L 1275.1 321.6 L 1286.7 319.8 L 1298.3 318.0 L 1309.9 316.2 L 1321.6 314.4 L 1333.2 313.7 L 1344.8 312.6 L 1356.4 311.5 L 1368.0 310.8 L 1379.7 310.1 L 1391.3 309.0 L 1402.9 307.9 L 1414.5 307.2 L 1426.1 306.5 L 1437.8 305.4 L 1449.4 304.3 L 1461.0 303.6 L 1461.0 336.0 L 1193.8 336.0 Z" fill="#fef3c7" stroke-linecap="round" stroke-linejoin="round" opacity="0.6"/>
<path d="M 1193.8 328.8 L 1205.4 328.1 L 1217.0 327.0 L 1228.6 325.9 L 1240.2 325.2 L 1251.8 324.5 L 1263.5 323.4 L 1275.1 321.6 L 1286.7 319.8 L 1298.3 318.0 L 1309.9 316.2 L 1321.6 314.4 L 1333.2 313.7 L 1344.8 312.6 L 1356.4 311.5 L 1368.0 310.8 L 1379.7 310.1 L 1391.3 309.0 L 1402.9 307.9 L 1414.5 307.2 L 1426.1 306.5 L 1437.8 305.4 L 1449.4 304.3 L 1461.0 303.6" fill="none" stroke-linecap="round" stroke-linejoin="round" stroke="#eab308" stroke-width="1.5"/>
<rect x="1493.0" y="178" width="289.25" height="168" fill="#ffffff" rx="8" stroke="#e5e7eb" stroke-width="1"/>
<rect x="1509.0" y="196" width="22" height="22" fill="#eff6ff" rx="4"/>
<rect x="1514.0" y="201" width="12" height="4" fill="none" rx="1" stroke="#3b82f6" stroke-width="1.2"/>
<rect x="1514.0" y="207" width="12" height="4" fill="none" rx="1" stroke="#3b82f6" stroke-width="1.2"/>
<circle cx="1516.0" cy="203" r="0.7" fill="#3b82f6"/>
<circle cx="1516.0" cy="209" r="0.7" fill="#3b82f6"/>
<text x="1541.0" y="212" font-size="15.5" fill="#0f172a" font-weight="600">Storage</text>
<rect x="232" y="372" width="1245" height="268" fill="#ffffff" rx="8" stroke="#e5e7eb" stroke-width="1"/>
<text x="250" y="398" font-size="14" fill="#0f172a" font-weight="600">Fleet map</text>
<text x="332" y="398" font-size="12" fill="#64748b" font-weight="400">34 hosts  ·  color shows max saturation  ·  hover for details</text>
<text x="1281" y="400" font-size="10" fill="#64748b" font-weight="400">0%</text>
<rect x="1299.0" y="392" width="28.0" height="12" fill="#3b82f6" rx="0"/>
<rect x="1327.0" y="392" width="28.0" height="12" fill="#10b981" rx="0"/>
<rect x="1355.0" y="392" width="28.0" height="12" fill="#eab308" rx="0"/>
<rect x="1383.0" y="392" width="28.0" height="12" fill="#f97316" rx="0"/>
<rect x="1411.0" y="392" width="28.0" height="12" fill="#ef4444" rx="0"/>
<text x="1447" y="400" font-size="10" fill="#64748b" font-weight="400">100%</text>
<text x="250" y="432" font-size="10" fill="#94a3b8" font-weight="600" letter-spacing="1">GROUP BY</text>
<rect x="312" y="419" width="210" height="24" fill="#f1f5f9" rx="6"/>
<rect x="315" y="422" width="96" height="18" fill="#ffffff" rx="4" stroke="#e5e7eb" stroke-width="1"/>
<text x="363" y="435" font-size="11.5" fill="#0f172a" font-weight="600" text-anchor="middle">Subsystem</text>
<text x="468" y="435" font-size="11.5" fill="#64748b" font-weight="400" text-anchor="middle">Availability zone</text>
<text x="1207" y="432" font-size="10" fill="#94a3b8" font-weight="600" letter-spacing="1">FILL BY</text>
<rect x="1257" y="419" width="218" height="24" fill="#f1f5f9" rx="6"/>
<rect x="1260" y="422" width="76" height="18" fill="#ffffff" rx="4" stroke="#e5e7eb" stroke-width="1"/>
<text x="1298" y="435" font-size="11.5" fill="#0f172a" font-weight="600" text-anchor="middle">Saturation</text>
<text x="1357" y="435" font-size="11.5" fill="#64748b" font-weight="400" text-anchor="middle">CPU</text>
<text x="1397" y="435" font-size="11.5" fill="#64748b" font-weight="400" text-anchor="middle">Memory</text>
<text x="1447" y="435" font-size="11.5" fill="#64748b" font-weight="400" text-anchor="middle">Disk</text>
<rect x="248.0" y="458" width="228.2" height="160" fill="#ffffff" rx="8" stroke="#f1f5f9" stroke-width="1"/>
<rect x="260.0" y="470" width="18" height="18" fill="#eff6ff" rx="3"/>
<text x="284.0" y="484" font-size="12.5" fill="#0f172a" font-weight="600">Kafka</text>
<text x="460.2" y="484" font-size="11" fill="#64748b" font-weight="400" text-anchor="end">9</text>
<path d="M 295.4 532.0 L 295.4 554.0 L 276.4 565.0 L 257.3 554.0 L 257.3 532.0 L 276.4 521.0 Z" fill="#eab308" stroke-linecap="round" stroke-linejoin="round" stroke="rgba(0,0,0,0.05)" stroke-width="0.6"/>
<text x="276.36348502534054" y="542.0" font-size="11.5" fill="white" font-weight="700" text-anchor="middle">62</text>
<text x="276.36348502534054" y="554.0" font-size="8" fill="white" font-weight="600" text-anchor="middle">B1</text>
<path d="M 314.5 565.0 L 314.5 587.0 L 295.4 598.0 L 276.4 587.0 L 276.4 565.0 L 295.4 554.0 Z" fill="#eab308" stroke-linecap="round" stroke-linejoin="round" stroke="rgba(0,0,0,0.05)" stroke-width="0.6"/>
<text x="295.41604390859817" y="575.0" font-size="11.5" fill="white" font-weight="700" text-anchor="middle">84</text>
<text x="295.41604390859817" y="587.0" font-size="8" fill="white" font-weight="600" text-anchor="middle">B3</text>
<path d="M 333.5 532.0 L 333.5 554.0 L 314.5 565.0 L 295.4 554.0 L 295.4 532.0 L 314.5 521.0 Z" fill="#eab308" stroke-linecap="round" stroke-linejoin="round" stroke="rgba(0,0,0,0.05)" stroke-width="0.6"/>
<text x="314.46860279185586" y="542.0" font-size="11.5" fill="white" font-weight="700" text-anchor="middle">71</text>
<text x="314.46860279185586" y="554.0" font-size="8" fill="white" font-weight="600" text-anchor="middle">B2</text>
<path d="M 352.6 565.0 L 352.6 587.0 L 333.5 598.0 L 314.5 587.0 L 314.5 565.0 L 333.5 554.0 Z" fill="#eab308" stroke-linecap="round" stroke-linejoin="round" stroke="rgba(0,0,0,0.05)" stroke-width="0.6"/>
<text x="333.5211616751135" y="575.0" font-size="11.5" fill="white" font-weight="700" text-anchor="middle">66</text>
<text x="333.5211616751135" y="587.0" font-size="8" fill="white" font-weight="600" text-anchor="middle">B4</text>
<path d="M 371.6 532.0 L 371.6 554.0 L 352.6 565.0 L 333.5 554.0 L 333.5 532.0 L 352.6 521.0 Z" fill="#ef4444" stroke-linecap="round" stroke-linejoin="round" stroke="rgba(0,0,0,0.05)" stroke-width="0.6"/>
<text x="352.5737205583711" y="542.0" font-size="11.5" fill="white" font-weight="700" text-anchor="middle">94</text>
<text x="352.5737205583711" y="554.0" font-size="8" fill="white" font-weight="600" text-anchor="middle">B5</text>
<path d="M 390.7 565.0 L 390.7 587.0 L 371.6 598.0 L 352.6 587.0 L 352.6 565.0 L 371.6 554.0 Z" fill="#eab308" stroke-linecap="round" stroke-linejoin="round" stroke="rgba(0,0,0,0.05)" stroke-width="0.6"/>
<text x="371.62627944162875" y="575.0" font-size="11.5" fill="white" font-weight="700" text-anchor="middle">68</text>
<text x="371.62627944162875" y="587.0" font-size="8" fill="white" font-weight="600" text-anchor="middle">B7</text>
<path d="M 409.7 532.0 L 409.7 554.0 L 390.7 565.0 L 371.6 554.0 L 371.6 532.0 L 390.7 521.0 Z" fill="#eab308" stroke-linecap="round" stroke-linejoin="round" stroke="rgba(0,0,0,0.05)" stroke-width="0.6"/>
<text x="390.67883832488644" y="542.0" font-size="11.5" fill="white" font-weight="700" text-anchor="middle">72</text>
<text x="390.67883832488644" y="554.0" font-size="8" fill="white" font-weight="600" text-anchor="middle">B8</text>
<path d="M 428.8 565.0 L 428.8 587.0 L 409.7 598.0 L 390.7 587.0 L 390.7 565.0 L 409.7 554.0 Z" fill="#10b981" stroke-linecap="round" stroke-linejoin="round" stroke="rgba(0,0,0,0.05)" stroke-width="0.6"/>
<text x="409.7313972081441" y="575.0" font-size="11.5" fill="white" font-weight="700" text-anchor="middle">58</text>
<text x="409.7313972081441" y="587.0" font-size="8" fill="white" font-weight="600" text-anchor="middle">B6</text>
<path d="M 447.8 532.0 L 447.8 554.0 L 428.8 565.0 L 409.7 554.0 L 409.7 532.0 L 428.8 521.0 Z" fill="#eab308" stroke-linecap="round" stroke-linejoin="round" stroke="rgba(0,0,0,0.05)" stroke-width="0.6"/>
<text x="428.7839560914017" y="542.0" font-size="11.5" fill="white" font-weight="700" text-anchor="middle">61</text>
<text x="428.7839560914017" y="554.0" font-size="8" fill="white" font-weight="600" text-anchor="middle">B9</text>
<path d="M 466.9 565.0 L 466.9 587.0 L 447.8 598.0 L 428.8 587.0 L 428.8 565.0 L 447.8 554.0 Z" fill="#eab308" stroke-linecap="round" stroke-linejoin="round" stroke="rgba(0,0,0,0.05)" stroke-width="0.6"/>
<text x="447.83651497465934" y="575.0" font-size="11.5" fill="white" font-weight="700" text-anchor="middle">79</text>
<text x="447.83651497465934" y="587.0" font-size="8" fill="white" font-weight="600" text-anchor="middle">B10</text>
<rect x="486.2" y="458" width="228.2" height="160" fill="#ffffff" rx="8" stroke="#f1f5f9" stroke-width="1"/>
<rect x="498.2" y="470" width="18" height="18" fill="#eff6ff" rx="3"/>
<text x="522.2" y="484" font-size="12.5" fill="#0f172a" font-weight="600">Database</text>
<text x="698.4" y="484" font-size="11" fill="#64748b" font-weight="400" text-anchor="end">4</text>
<path d="M 590.8 532.0 L 590.8 554.0 L 571.7 565.0 L 552.7 554.0 L 552.7 532.0 L 571.7 521.0 Z" fill="#eab308" stroke-linecap="round" stroke-linejoin="round" stroke="rgba(0,0,0,0.05)" stroke-width="0.6"/>
<text x="571.7211616751135" y="542.0" font-size="11.5" fill="white" font-weight="700" text-anchor="middle">74</text>
<text x="571.7211616751135" y="554.0" font-size="8" fill="white" font-weight="600" text-anchor="middle">PRI</text>
<path d="M 609.8 565.0 L 609.8 587.0 L 590.8 598.0 L 571.7 587.0 L 571.7 565.0 L 590.8 554.0 Z" fill="#eab308" stroke-linecap="round" stroke-linejoin="round" stroke="rgba(0,0,0,0.05)" stroke-width="0.6"/>
<text x="590.7737205583712" y="575.0" font-size="11.5" fill="white" font-weight="700" text-anchor="middle">60</text>
<text x="590.7737205583712" y="587.0" font-size="8" fill="white" font-weight="600" text-anchor="middle">R2</text>
<path d="M 628.9 532.0 L 628.9 554.0 L 609.8 565.0 L 590.8 554.0 L 590.8 532.0 L 609.8 521.0 Z" fill="#10b981" stroke-linecap="round" stroke-linejoin="round" stroke="rgba(0,0,0,0.05)" stroke-width="0.6"/>
<text x="609.8262794416288" y="542.0" font-size="11.5" fill="white" font-weight="700" text-anchor="middle">58</text>
<text x="609.8262794416288" y="554.0" font-size="8" fill="white" font-weight="600" text-anchor="middle">R1</text>
<path d="M 647.9 565.0 L 647.9 587.0 L 628.9 598.0 L 609.8 587.0 L 609.8 565.0 L 628.9 554.0 Z" fill="#eab308" stroke-linecap="round" stroke-linejoin="round" stroke="rgba(0,0,0,0.05)" stroke-width="0.6"/>
<text x="628.8788383248865" y="575.0" font-size="11.5" fill="white" font-weight="700" text-anchor="middle">84</text>
<text x="628.8788383248865" y="587.0" font-size="8" fill="white" font-weight="600" text-anchor="middle">R3</text>
<rect x="724.4" y="458" width="228.2" height="160" fill="#ffffff" rx="8" stroke="#f1f5f9" stroke-width="1"/>
<rect x="736.4" y="470" width="18" height="18" fill="#eff6ff" rx="3"/>
<text x="760.4" y="484" font-size="12.5" fill="#0f172a" font-weight="600">Redis</text>
<text x="936.5999999999999" y="484" font-size="11" fill="#64748b" font-weight="400" text-anchor="end">6</text>
<path d="M 809.9 532.0 L 809.9 554.0 L 790.9 565.0 L 771.8 554.0 L 771.8 532.0 L 790.9 521.0 Z" fill="#eab308" stroke-linecap="round" stroke-linejoin="round" stroke="rgba(0,0,0,0.05)" stroke-width="0.6"/>
<text x="790.8686027918559" y="542.0" font-size="11.5" fill="white" font-weight="700" text-anchor="middle">74</text>
<text x="790.8686027918559" y="554.0" font-size="8" fill="white" font-weight="600" text-anchor="middle">S0-P</text>
<path d="M 829.0 565.0 L 829.0 587.0 L 809.9 598.0 L 790.9 587.0 L 790.9 565.0 L 809.9 554.0 Z" fill="#eab308" stroke-linecap="round" stroke-linejoin="round" stroke="rgba(0,0,0,0.05)" stroke-width="0.6"/>
<text x="809.9211616751136" y="575.0" font-size="11.5" fill="white" font-weight="700" text-anchor="middle">62</text>
<text x="809.9211616751136" y="587.0" font-size="8" fill="white" font-weight="600" text-anchor="middle">S2-P</text>
<path d="M 848.0 532.0 L 848.0 554.0 L 829.0 565.0 L 809.9 554.0 L 809.9 532.0 L 829.0 521.0 Z" fill="#ef4444" stroke-linecap="round" stroke-linejoin="round" stroke="rgba(0,0,0,0.05)" stroke-width="0.6"/>
<text x="828.9737205583712" y="542.0" font-size="11.5" fill="white" font-weight="700" text-anchor="middle">91</text>
<text x="828.9737205583712" y="554.0" font-size="8" fill="white" font-weight="600" text-anchor="middle">S1-P</text>
<path d="M 867.1 565.0 L 867.1 587.0 L 848.0 598.0 L 829.0 587.0 L 829.0 565.0 L 848.0 554.0 Z" fill="#eab308" stroke-linecap="round" stroke-linejoin="round" stroke="rgba(0,0,0,0.05)" stroke-width="0.6"/>
<text x="848.0262794416288" y="575.0" font-size="11.5" fill="white" font-weight="700" text-anchor="middle">74</text>
<text x="848.0262794416288" y="587.0" font-size="8" fill="white" font-weight="600" text-anchor="middle">S0-R</text>
<path d="M 886.1 532.0 L 886.1 554.0 L 867.1 565.0 L 848.0 554.0 L 848.0 532.0 L 867.1 521.0 Z" fill="#ef4444" stroke-linecap="round" stroke-linejoin="round" stroke="rgba(0,0,0,0.05)" stroke-width="0.6"/>
<text x="867.0788383248865" y="542.0" font-size="11.5" fill="white" font-weight="700" text-anchor="middle">91</text>
<text x="867.0788383248865" y="554.0" font-size="8" fill="white" font-weight="600" text-anchor="middle">S1-R</text>
<path d="M 905.2 565.0 L 905.2 587.0 L 886.1 598.0 L 867.1 587.0 L 867.1 565.0 L 886.1 554.0 Z" fill="#eab308" stroke-linecap="round" stroke-linejoin="round" stroke="rgba(0,0,0,0.05)" stroke-width="0.6"/>
<text x="886.1313972081442" y="575.0" font-size="11.5" fill="white" font-weight="700" text-anchor="middle">62</text>
<text x="886.1313972081442" y="587.0" font-size="8" fill="white" font-weight="600" text-anchor="middle">S2-R</text>
<rect x="962.5999999999999" y="458" width="228.2" height="160" fill="#ffffff" rx="8" stroke="#f1f5f9" stroke-width="1"/>
<rect x="974.5999999999999" y="470" width="18" height="18" fill="#eff6ff" rx="3"/>
<text x="998.5999999999999" y="484" font-size="12.5" fill="#0f172a" font-weight="600">Queues</text>
<text x="1174.8" y="484" font-size="11" fill="#64748b" font-weight="400" text-anchor="end">6</text>
<path d="M 1048.1 532.0 L 1048.1 554.0 L 1029.1 565.0 L 1010.0 554.0 L 1010.0 532.0 L 1029.1 521.0 Z" fill="#ef4444" stroke-linecap="round" stroke-linejoin="round" stroke="rgba(0,0,0,0.05)" stroke-width="0.6"/>
<text x="1029.0686027918557" y="542.0" font-size="11.5" fill="white" font-weight="700" text-anchor="middle">88</text>
<text x="1029.0686027918557" y="554.0" font-size="8" fill="white" font-weight="600" text-anchor="middle">Q-EAST</text>
<path d="M 1067.2 565.0 L 1067.2 587.0 L 1048.1 598.0 L 1029.1 587.0 L 1029.1 565.0 L 1048.1 554.0 Z" fill="#ef4444" stroke-linecap="round" stroke-linejoin="round" stroke="rgba(0,0,0,0.05)" stroke-width="0.6"/>
<text x="1048.1211616751134" y="575.0" font-size="11.5" fill="white" font-weight="700" text-anchor="middle">100</text>
<text x="1048.1211616751134" y="587.0" font-size="8" fill="white" font-weight="600" text-anchor="middle">US-EAST</text>
<path d="M 1086.2 532.0 L 1086.2 554.0 L 1067.2 565.0 L 1048.1 554.0 L 1048.1 532.0 L 1067.2 521.0 Z" fill="#10b981" stroke-linecap="round" stroke-linejoin="round" stroke="rgba(0,0,0,0.05)" stroke-width="0.6"/>
<text x="1067.173720558371" y="542.0" font-size="11.5" fill="white" font-weight="700" text-anchor="middle">58</text>
<text x="1067.173720558371" y="554.0" font-size="8" fill="white" font-weight="600" text-anchor="middle">S-EAST</text>
<path d="M 1105.3 565.0 L 1105.3 587.0 L 1086.2 598.0 L 1067.2 587.0 L 1067.2 565.0 L 1086.2 554.0 Z" fill="#ef4444" stroke-linecap="round" stroke-linejoin="round" stroke="rgba(0,0,0,0.05)" stroke-width="0.6"/>
<text x="1086.2262794416288" y="575.0" font-size="11.5" fill="white" font-weight="700" text-anchor="middle">94</text>
<text x="1086.2262794416288" y="587.0" font-size="8" fill="white" font-weight="600" text-anchor="middle">S-EAST</text>
<path d="M 1124.3 532.0 L 1124.3 554.0 L 1105.3 565.0 L 1086.2 554.0 L 1086.2 532.0 L 1105.3 521.0 Z" fill="#10b981" stroke-linecap="round" stroke-linejoin="round" stroke="rgba(0,0,0,0.05)" stroke-width="0.6"/>
<text x="1105.2788383248862" y="542.0" font-size="11.5" fill="white" font-weight="700" text-anchor="middle">42</text>
<text x="1105.2788383248862" y="554.0" font-size="8" fill="white" font-weight="600" text-anchor="middle">S-EAST</text>
<rect x="1200.8" y="458" width="228.2" height="160" fill="#ffffff" rx="8" stroke="#f1f5f9" stroke-width="1"/>
<rect x="1212.8" y="470" width="18" height="18" fill="#eff6ff" rx="3"/>
<text x="1236.8" y="484" font-size="12.5" fill="#0f172a" font-weight="600">Storage</text>
<text x="1413.0" y="484" font-size="11" fill="#64748b" font-weight="400" text-anchor="end">9</text>
<path d="M 1267.3 532.0 L 1267.3 554.0 L 1248.2 565.0 L 1229.2 554.0 L 1229.2 532.0 L 1248.2 521.0 Z" fill="#eab308" stroke-linecap="round" stroke-linejoin="round" stroke="rgba(0,0,0,0.05)" stroke-width="0.6"/>
<text x="1248.2160439085983" y="542.0" font-size="11.5" fill="white" font-weight="700" text-anchor="middle">82</text>
<text x="1248.2160439085983" y="554.0" font-size="8" fill="white" font-weight="600" text-anchor="middle">PG</text>
<path d="M 1286.3 565.0 L 1286.3 587.0 L 1267.3 598.0 L 1248.2 587.0 L 1248.2 565.0 L 1267.3 554.0 Z" fill="#eab308" stroke-linecap="round" stroke-linejoin="round" stroke="rgba(0,0,0,0.05)" stroke-width="0.6"/>
<text x="1267.268602791856" y="575.0" font-size="11.5" fill="white" font-weight="700" text-anchor="middle">82</text>
<text x="1267.268602791856" y="587.0" font-size="8" fill="white" font-weight="600" text-anchor="middle">PG</text>
<path d="M 1305.4 532.0 L 1305.4 554.0 L 1286.3 565.0 L 1267.3 554.0 L 1267.3 532.0 L 1286.3 521.0 Z" fill="#ef4444" stroke-linecap="round" stroke-linejoin="round" stroke="rgba(0,0,0,0.05)" stroke-width="0.6"/>
<text x="1286.3211616751137" y="542.0" font-size="11.5" fill="white" font-weight="700" text-anchor="middle">92</text>
<text x="1286.3211616751137" y="554.0" font-size="8" fill="white" font-weight="600" text-anchor="middle">PG</text>
<path d="M 1324.4 565.0 L 1324.4 587.0 L 1305.4 598.0 L 1286.3 587.0 L 1286.3 565.0 L 1305.4 554.0 Z" fill="#10b981" stroke-linecap="round" stroke-linejoin="round" stroke="rgba(0,0,0,0.05)" stroke-width="0.6"/>
<text x="1305.3737205583714" y="575.0" font-size="11.5" fill="white" font-weight="700" text-anchor="middle">58</text>
<text x="1305.3737205583714" y="587.0" font-size="8" fill="white" font-weight="600" text-anchor="middle">KAFKA</text>
<path d="M 1343.5 532.0 L 1343.5 554.0 L 1324.4 565.0 L 1305.4 554.0 L 1305.4 532.0 L 1324.4 521.0 Z" fill="#eab308" stroke-linecap="round" stroke-linejoin="round" stroke="rgba(0,0,0,0.05)" stroke-width="0.6"/>
<text x="1324.4262794416288" y="542.0" font-size="11.5" fill="white" font-weight="700" text-anchor="middle">88</text>
<text x="1324.4262794416288" y="554.0" font-size="8" fill="white" font-weight="600" text-anchor="middle">KAFKA</text>
<path d="M 1362.5 565.0 L 1362.5 587.0 L 1343.5 598.0 L 1324.4 587.0 L 1324.4 565.0 L 1343.5 554.0 Z" fill="#eab308" stroke-linecap="round" stroke-linejoin="round" stroke="rgba(0,0,0,0.05)" stroke-width="0.6"/>
<text x="1343.4788383248865" y="575.0" font-size="11.5" fill="white" font-weight="700" text-anchor="middle">79</text>
<text x="1343.4788383248865" y="587.0" font-size="8" fill="white" font-weight="600" text-anchor="middle">ELASTIC</text>
<path d="M 1381.6 532.0 L 1381.6 554.0 L 1362.5 565.0 L 1343.5 554.0 L 1343.5 532.0 L 1362.5 521.0 Z" fill="#eab308" stroke-linecap="round" stroke-linejoin="round" stroke="rgba(0,0,0,0.05)" stroke-width="0.6"/>
<text x="1362.5313972081442" y="542.0" font-size="11.5" fill="white" font-weight="700" text-anchor="middle">64</text>
<text x="1362.5313972081442" y="554.0" font-size="8" fill="white" font-weight="600" text-anchor="middle">ELASTIC</text>
<path d="M 1400.6 565.0 L 1400.6 587.0 L 1381.6 598.0 L 1362.5 587.0 L 1362.5 565.0 L 1381.6 554.0 Z" fill="#eab308" stroke-linecap="round" stroke-linejoin="round" stroke="rgba(0,0,0,0.05)" stroke-width="0.6"/>
<text x="1381.583956091402" y="575.0" font-size="11.5" fill="white" font-weight="700" text-anchor="middle">68</text>
<text x="1381.583956091402" y="587.0" font-size="8" fill="white" font-weight="600" text-anchor="middle">ELASTIC</text>
<rect x="232" y="660" width="1245" height="230" fill="#ffffff" rx="8" stroke="#e5e7eb" stroke-width="1"/>
<text x="250" y="686" font-size="14" fill="#0f172a" font-weight="600">Most saturated hosts</text>
<text x="402" y="686" font-size="12" fill="#64748b" font-weight="400">Top 10 across the entire fleet  ·  max(CPU, mem, disk, lag)</text>
<line x1="250" y1="732" x2="1459" y2="732" stroke="#f1f5f9" stroke-width="1"/>
<text x="250" y="726" font-size="10" fill="#94a3b8" font-weight="600" letter-spacing="1">HOST</text>
<text x="612" y="726" font-size="10" fill="#94a3b8" font-weight="600" letter-spacing="1">SYSTEM</text>
<text x="872" y="726" font-size="10" fill="#94a3b8" font-weight="600" letter-spacing="1">LOCATION</text>
<text x="1112" y="726" font-size="10" fill="#94a3b8" font-weight="600" letter-spacing="1">METRICS</text>
<rect x="1289" y="724" width="200" height="130" fill="#ffffff" rx="8" stroke="#e5e7eb" stroke-width="1"/>
<text x="1305" y="746" font-size="13" fill="#0f172a" font-weight="600">Tweaks</text>
<text x="1473" y="746" font-size="15" fill="#64748b" font-weight="400" text-anchor="end">×</text>
<text x="1305" y="770" font-size="10" fill="#94a3b8" font-weight="600" letter-spacing="1">DISPLAY</text>
<text x="1305" y="792" font-size="12" fill="#334155" font-weight="400">Theme</text>
<rect x="1303" y="808" width="172" height="30" fill="#f1f5f9" rx="6"/>
<rect x="1305" y="810" width="84.0" height="26" fill="#0f172a" rx="4"/>
<text x="1347.0" y="827" font-size="12" fill="white" font-weight="600" text-anchor="middle">dark</text>
<text x="1431.0" y="827" font-size="12" fill="#334155" font-weight="600" text-anchor="middle">light</text>
</svg>
