<svg xmlns="http://www.w3.org/2000/svg" viewBox="0 0 1509 899" width="1509" height="899" font-family="-apple-system, BlinkMacSystemFont, 'Segoe UI', 'Inter', system-ui, sans-serif" fill="#0f172a">
<rect width="1509" height="899" fill="#ffffff"/>
<rect x="0" y="0" width="200" height="899" fill="#fafafa" rx="0"/>
<line x1="200" y1="0" x2="200" y2="899" stroke="#e5e7eb" stroke-width="1"/>
<circle cx="33.0" cy="35.0" r="11.0" fill="#2563eb"/>
<circle cx="33.0" cy="35.0" r="8.0" fill="#3b82f6"/>
<circle cx="33.0" cy="35.0" r="4.0" fill="#dbeafe"/>
<circle cx="33.0" cy="35.0" r="1.6" fill="#1e3a8a"/>
<text x="54" y="41" font-size="15" fill="#0f172a" font-weight="600">Optikk</text>
<text x="22" y="86" font-size="10" fill="#94a3b8" font-weight="600" letter-spacing="1.2">OBSERVE</text>
<rect x="22" y="104" width="7" height="7" fill="none" rx="1" stroke="#475569" stroke-width="1.4"/>
<rect x="31" y="104" width="7" height="7" fill="none" rx="1" stroke="#475569" stroke-width="1.4"/>
<rect x="22" y="113" width="7" height="7" fill="none" rx="1" stroke="#475569" stroke-width="1.4"/>
<rect x="31" y="113" width="7" height="7" fill="none" rx="1" stroke="#475569" stroke-width="1.4"/>
<text x="48" y="116" font-size="13" fill="#475569" font-weight="500">Overview</text>
<rect x="8" y="130" width="184" height="30" fill="#eef0f3" rx="6"/>
<rect x="22" y="140" width="16" height="12" fill="none" rx="2" stroke="#0f172a" stroke-width="1.4"/>
<line x1="25" y1="144" x2="35" y2="144" stroke="#0f172a" stroke-width="1.4"/>
<line x1="25" y1="147" x2="31" y2="147" stroke="#0f172a" stroke-width="1.4"/>
<text x="48" y="150" font-size="13" fill="#0f172a" font-weight="600">Service</text>
<line x1="23" y1="186" x2="23" y2="177" stroke="#475569" stroke-width="1.6"/>
<line x1="28" y1="186" x2="28" y2="181" stroke="#475569" stroke-width="1.6"/>
<line x1="33" y1="186" x2="33" y2="174" stroke="#475569" stroke-width="1.6"/>
<line x1="22" y1="187" x2="37" y2="187" stroke="#475569" stroke-width="1.6"/>
<text x="48" y="184" font-size="13" fill="#475569" font-weight="500">Metrics</text>
<rect x="22" y="207" width="16" height="14" fill="none" rx="2" stroke="#475569" stroke-width="1.4"/>
<line x1="25" y1="211" x2="35" y2="211" stroke="#475569" stroke-width="1.4"/>
<line x1="25" y1="214" x2="35" y2="214" stroke="#475569" stroke-width="1.4"/>
<line x1="25" y1="217" x2="32" y2="217" stroke="#475569" stroke-width="1.4"/>
<text x="48" y="218" font-size="13" fill="#475569" font-weight="500">Logs</text>
<line x1="22" y1="244" x2="31" y2="244" stroke="#475569" stroke-width="1.6"/>
<line x1="25" y1="249" x2="35" y2="249" stroke="#475569" stroke-width="1.6"/>
<line x1="28" y1="254" x2="38" y2="254" stroke="#475569" stroke-width="1.6"/>
<text x="48" y="252" font-size="13" fill="#475569" font-weight="500">Traces</text>
<text x="22" y="288" font-size="10" fill="#94a3b8" font-weight="600" letter-spacing="1.2">OPERATE</text>
<path d="M 22 319 A 8 8 0 0 1 38 319" fill="none" stroke-linecap="round" stroke-linejoin="round" stroke="#475569" stroke-width="1.6"/>
<line x1="30" y1="319" x2="35" y2="312" stroke="#475569" stroke-width="1.6"/>
<circle cx="30" cy="319" r="1.4" fill="#475569"/>
<text x="48" y="318" font-size="13" fill="#475569" font-weight="500">Saturation</text>
<rect x="22" y="341" width="16" height="5" fill="none" rx="1" stroke="#475569" stroke-width="1.4"/>
<rect x="22" y="349" width="16" height="5" fill="none" rx="1" stroke="#475569" stroke-width="1.4"/>
<circle cx="25" cy="343.5" r="0.9" fill="#475569"/>
<circle cx="25" cy="351.5" r="0.9" fill="#475569"/>
<text x="48" y="352" font-size="13" fill="#475569" font-weight="500">Infrastructure</text>
<rect x="201" y="0" width="1308" height="58" fill="#ffffff" rx="0"/>
<line x1="201" y1="58" x2="1509" y2="58" stroke="#e5e7eb" stroke-width="1"/>
<path d="M 224 25 L 220 29 L 224 33" fill="none" stroke-linecap="round" stroke-linejoin="round" stroke="#64748b" stroke-width="1.6"/>
<rect x="251" y="14" width="200" height="30" fill="#ffffff" rx="15" stroke="#e5e7eb" stroke-width="1"/>
<circle cx="269" cy="29" r="7" fill="none" stroke="#64748b" stroke-width="1.4"/>
<line x1="269" y1="29" x2="269" y2="25" stroke="#64748b" stroke-width="1.4"/>
<line x1="269" y1="29" x2="273" y2="29" stroke="#64748b" stroke-width="1.4"/>
<text x="285" y="33" font-size="13" fill="#0f172a" font-weight="500">Last 1 hour</text>
<path d="M 433 27 L 437 31 L 441 27" fill="none" stroke-linecap="round" stroke-linejoin="round" stroke="#64748b" stroke-width="1.6"/>
<path d="M 468 25 L 472 29 L 468 33" fill="none" stroke-linecap="round" stroke-linejoin="round" stroke="#64748b" stroke-width="1.6"/>
<rect x="491" y="16" width="78" height="26" fill="#ffffff" rx="13" stroke="#10b981" stroke-width="1"/>
<circle cx="505" cy="29" r="5" fill="#10b981"/>
<text x="517" y="33" font-size="12" fill="#10b981" font-weight="700">LIVE</text>
<text x="1104" y="33" font-size="10" fill="#94a3b8" font-weight="600" letter-spacing="1.2">WORKSPACE</text>
<text x="1209" y="33" font-size="13" fill="#0f172a" font-weight="500">My-Organization / My Team</text>
<path d="M 1395 27 L 1399 31 L 1403 27" fill="none" stroke-linecap="round" stroke-linejoin="round" stroke="#64748b" stroke-width="1.6"/>
<path d="M 1431 29 a 8 8 0 1 0 2 -5" fill="none" stroke-linecap="round" stroke-linejoin="round" stroke="#64748b" stroke-width="1.4"/>
<path d="M 1433 23 l 0 4 l -4 0" fill="none" stroke-linecap="round" stroke-linejoin="round" stroke="#64748b" stroke-width="1.4"/>
<text x="1459" y="33" font-size="13" fill="#0f172a" font-weight="500">5s</text>
<path d="M 1483 27 L 1487 31 L 1491 27" fill="none" stroke-linecap="round" stroke-linejoin="round" stroke="#64748b" stroke-width="1.6"/>
<text x="232" y="84" font-size="12" fill="#3b82f6" font-weight="400">Services</text>
<text x="288" y="84" font-size="12" fill="#64748b" font-weight="400">/  payment-svc</text>
<rect x="232" y="102" width="44" height="44" fill="#7c2d12" rx="6"/>
<text x="254" y="130" font-size="15" fill="white" font-weight="700" text-anchor="middle">JV</text>
<text x="288" y="126" font-size="24" fill="#0f172a" font-weight="700">payment-svc</text>
<rect x="476" y="114" width="70" height="22" fill="#fef3c7" rx="11"/>
<circle cx="486" cy="125" r="3.5" fill="#eab308"/>
<text x="496" y="129" font-size="11.5" fill="#92400e" font-weight="600">Warn</text>
<text x="288" y="146" font-size="11.5" fill="#334155" font-weight="400">v8.12.0</text>
<text x="350" y="146" font-size="11.5" fill="#64748b" font-weight="400">12 instances</text>
<text x="448" y="146" font-size="11.5" fill="#64748b" font-weight="400">prod</text>
<text x="488" y="146" font-size="11.5" fill="#64748b" font-weight="400">team</text>
<text x="528" y="146" font-size="11.5" fill="#0f172a" font-weight="600">payments</text>
<text x="597" y="146" font-size="11.5" fill="#64748b" font-weight="400">owner</text>
<text x="645" y="146" font-size="11.5" fill="#0f172a" font-weight="600">@payments</text>
<text x="721" y="146" font-size="11.5" fill="#64748b" font-weight="400">last deploy</text>
<text x="812" y="146" font-size="11.5" fill="#0f172a" font-weight="600">5h ago</text>
<text x="867" y="146" font-size="11.5" fill="#64748b" font-weight="400">tier</text>
<text x="907" y="146" font-size="11.5" fill="#0f172a" font-weight="600">1</text>
<text x="926" y="146" font-size="11.5" fill="#64748b" font-weight="400">tags</text>
<text x="966" y="146" font-size="11.5" fill="#0f172a" font-weight="600">tier-1, external</text>
<rect x="232" y="166" width="64" height="22" fill="#fee2e2" rx="11"/>
<circle cx="244" cy="177" r="3.5" fill="#ef4444"/>
<text x="254" y="181" font-size="11" fill="#991b1b" font-weight="600">2 alerts</text>
<text x="312" y="181" font-size="12" fill="#0f172a" font-weight="400">📘</text>
<text x="329" y="181" font-size="11.5" fill="#334155" font-weight="400">Runbook</text>
<text x="394" y="181" font-size="12" fill="#eab308" font-weight="400">⚠</text>
<text x="410" y="181" font-size="11.5" fill="#334155" font-weight="400">Page on-call</text>
<rect x="494" y="166" width="72" height="22" fill="#dbeafe" rx="11" stroke="#3b82f6" stroke-width="1"/>
<text x="505" y="181" font-size="11" fill="#0f172a" font-weight="400">🚀</text>
<text x="530" y="181" font-size="11" fill="#3b82f6" font-weight="600" text-anchor="middle">Deploy</text>
<circle cx="586" cy="177" r="5" fill="none" stroke="#64748b" stroke-width="1.2"/>
<text x="232" y="204" font-size="13.5" fill="#0f172a" font-weight="600">Overview</text>
<line x1="230" y1="211" x2="298" y2="211" stroke="#0f172a" stroke-width="2"/>
<text x="308" y="204" font-size="13.5" fill="#334155" font-weight="500">Endpoints</text>
<rect x="383" y="193" width="22" height="16" fill="#fde2e2" rx="8"/>
<text x="394.0" y="205" font-size="10.5" fill="#991b1b" font-weight="600" text-anchor="middle">12</text>
<text x="421" y="204" font-size="13.5" fill="#334155" font-weight="500">Traces</text>
<text x="483" y="204" font-size="13.5" fill="#334155" font-weight="500">Errors</text>
<rect x="537" y="193" width="18" height="16" fill="#fde2e2" rx="8"/>
<text x="546.0" y="205" font-size="10.5" fill="#991b1b" font-weight="600" text-anchor="middle">6</text>
<text x="571" y="204" font-size="13.5" fill="#334155" font-weight="500">Logs</text>
<text x="619" y="204" font-size="13.5" fill="#334155" font-weight="500">Infrastructure</text>
<rect x="729" y="193" width="22" height="16" fill="#fde2e2" rx="8"/>
<text x="740.0" y="205" font-size="10.5" fill="#991b1b" font-weight="600" text-anchor="middle">12</text>
<text x="767" y="204" font-size="13.5" fill="#334155" font-weight="500">Deploys</text>
<rect x="828" y="193" width="18" height="16" fill="#e2e8f0" rx="8"/>
<text x="837.0" y="205" font-size="10.5" fill="#334155" font-weight="600" text-anchor="middle">1</text>
<text x="862" y="204" font-size="13.5" fill="#334155" font-weight="500">Code</text>
<line x1="232" y1="216" x2="1477" y2="216" stroke="#e5e7eb" stroke-width="1"/>
<rect x="232.0" y="242" width="195.83333333333334" height="130" fill="#ffffff" rx="8" stroke="#e5e7eb" stroke-width="1"/>
<text x="246.0" y="266" font-size="9.5" fill="#94a3b8" font-weight="600" letter-spacing="1">REQUEST RATE</text>
<text x="246.0" y="306" font-size="30" fill="#0f172a" font-weight="700">4.8k</text>
<text x="318.0769230769231" y="306" font-size="13" fill="#64748b" font-weight="400">rps</text>
<text x="246.0" y="332" font-size="10" fill="#10b981" font-weight="400">▲</text>
<text x="256.0" y="332" font-size="11" fill="#64748b" font-weight="400">+1%</text>
<rect x="441.83333333333337" y="242" width="195.83333333333334" height="130" fill="#ffffff" rx="8" stroke="#e5e7eb" stroke-width="1"/>
<text x="455.83333333333337" y="266" font-size="9.5" fill="#94a3b8" font-weight="600" letter-spacing="1">ERROR RATE</text>
<text x="455.83333333333337" y="306" font-size="30" fill="#ef4444" font-weight="700">2.40</text>
<text x="527.9102564102565" y="306" font-size="13" fill="#64748b" font-weight="400">%</text>
<text x="455.83333333333337" y="332" font-size="11" fill="#64748b" font-weight="400">116 errors/s</text>
<rect x="651.6666666666667" y="242" width="195.83333333333334" height="130" fill="#ffffff" rx="8" stroke="#e5e7eb" stroke-width="1"/>
<text x="665.6666666666667" y="266" font-size="9.5" fill="#94a3b8" font-weight="600" letter-spacing="1">P50</text>
<text x="665.6666666666667" y="306" font-size="30" fill="#0f172a" font-weight="700">84</text>
<text x="708.897435897436" y="306" font-size="13" fill="#64748b" font-weight="400">ms</text>
<text x="665.6666666666667" y="332" font-size="11" fill="#64748b" font-weight="400">baseline 64ms</text>
<rect x="861.5" y="242" width="195.83333333333334" height="130" fill="#ffffff" rx="8" stroke="#e5e7eb" stroke-width="1"/>
<text x="875.5" y="266" font-size="9.5" fill="#94a3b8" font-weight="600" letter-spacing="1">P95</text>
<text x="875.5" y="306" font-size="30" fill="#0f172a" font-weight="700">280</text>
<text x="938.3461538461538" y="306" font-size="13" fill="#64748b" font-weight="400">ms</text>
<text x="875.5" y="332" font-size="11" fill="#64748b" font-weight="400">baseline 180ms</text>
<rect x="1071.3333333333335" y="242" width="195.83333333333334" height="130" fill="#ffffff" rx="8" stroke="#e5e7eb" stroke-width="1"/>
<text x="1085.3333333333335" y="266" font-size="9.5" fill="#94a3b8" font-weight="600" letter-spacing="1">P99</text>
<text x="1085.3333333333335" y="306" font-size="30" fill="#eab308" font-weight="700">840</text>
<text x="1148.1794871794873" y="306" font-size="13" fill="#64748b" font-weight="400">ms</text>
<text x="1085.3333333333335" y="332" font-size="10" fill="#ef4444" font-weight="400">▲</text>
<text x="1095.3333333333335" y="332" font-size="11" fill="#64748b" font-weight="400">+42%</text>
<rect x="1281.1666666666667" y="242" width="195.83333333333334" height="130" fill="#ffffff" rx="8" stroke="#e5e7eb" stroke-width="1"/>
<text x="1295.1666666666667" y="266" font-size="9.5" fill="#94a3b8" font-weight="600" letter-spacing="1">SLO · CHARGE SUCCESS</text>
<text x="1295.1666666666667" y="306" font-size="30" fill="#0f172a" font-weight="700">18</text>
<text x="1338.397435897436" y="306" font-size="13" fill="#64748b" font-weight="400">%</text>
<text x="1295.1666666666667" y="332" font-size="11" fill="#64748b" font-weight="400">error-budget remaining</text>
<rect x="232.0" y="386" width="405.6666666666667" height="200" fill="#ffffff" rx="8" stroke="#e5e7eb" stroke-width="1"/>
<text x="248.0" y="408" font-size="13" fill="#0f172a" font-weight="600">Requests</text>
<text x="312.0" y="408" font-size="11" fill="#64748b" font-weight="400">rps by status · last 60m</text>
<rect x="513.6666666666667" y="398" width="116" height="20" fill="#f1f5f9" rx="4"/>
<rect x="515.6666666666667" y="400" width="25.0" height="16" fill="#ffffff" rx="3"/>
<text x="528.1666666666667" y="412" font-size="10.5" fill="#0f172a" font-weight="600" text-anchor="middle">All</text>
<text x="557.1666666666667" y="412" font-size="10.5" fill="#64748b" font-weight="500" text-anchor="middle">2xx</text>
<text x="586.1666666666667" y="412" font-size="10.5" fill="#64748b" font-weight="500" text-anchor="middle">4xx</text>
<text x="615.1666666666667" y="412" font-size="10.5" fill="#64748b" font-weight="500" text-anchor="middle">5xx</text>
<text x="258.0" y="440.0" font-size="9" fill="#94a3b8" font-weight="400" text-anchor="end">1.6k</text>
<line x1="262.0" y1="436.0" x2="621.6666666666667" y2="436.0" stroke="#f1f5f9" stroke-width="1"/>
<text x="258.0" y="468.5" font-size="9" fill="#94a3b8" font-weight="400" text-anchor="end">1.2k</text>
<line x1="262.0" y1="464.5" x2="621.6666666666667" y2="464.5" stroke="#f1f5f9" stroke-width="1"/>
<text x="258.0" y="497.0" font-size="9" fill="#94a3b8" font-weight="400" text-anchor="end">0.8k</text>
<line x1="262.0" y1="493.0" x2="621.6666666666667" y2="493.0" stroke="#f1f5f9" stroke-width="1"/>
<text x="258.0" y="525.5" font-size="9" fill="#94a3b8" font-weight="400" text-anchor="end">0.4k</text>
<line x1="262.0" y1="521.5" x2="621.6666666666667" y2="521.5" stroke="#f1f5f9" stroke-width="1"/>
<text x="258.0" y="554.0" font-size="9" fill="#94a3b8" font-weight="400" text-anchor="end">0</text>
<line x1="262.0" y1="550.0" x2="621.6666666666667" y2="550.0" stroke="#f1f5f9" stroke-width="1"/>
<path d="M 262.0 470.2 L 274.4 467.5 L 286.8 465.4 L 299.2 464.5 L 311.6 465.0 L 324.0 466.8 L 336.4 469.4 L 348.8 472.2 L 361.2 474.5 L 373.6 475.8 L 386.0 475.7 L 398.4 474.2 L 410.8 471.8 L 423.2 469.0 L 435.6 466.5 L 448.0 464.9 L 460.4 464.6 L 472.8 465.6 L 485.2 467.9 L 497.6 470.6 L 510.0 473.3 L 522.4 475.2 L 534.9 475.9 L 547.3 475.2 L 559.7 473.3 L 572.1 470.6 L 584.5 467.8 L 596.9 465.6 L 609.3 464.6 L 621.7 464.9" fill="none" stroke-linecap="round" stroke-linejoin="round" stroke="#10b981" stroke-width="2"/>
<path d="M 262.0 547.7 L 274.4 547.7 L 286.8 547.7 L 299.2 547.7 L 311.6 547.7 L 324.0 547.7 L 336.4 547.7 L 348.8 547.7 L 361.2 547.7 L 373.6 547.6 L 386.0 547.5 L 398.4 547.2 L 410.8 546.8 L 423.2 546.0 L 435.6 545.0 L 448.0 543.4 L 460.4 541.4 L 472.8 538.9 L 485.2 536.0 L 497.6 533.1 L 510.0 530.5 L 522.4 528.4 L 534.9 527.3 L 547.3 527.3 L 559.7 528.4 L 572.1 530.5 L 584.5 533.1 L 596.9 536.0 L 609.3 538.9 L 621.7 541.4" fill="none" stroke-linecap="round" stroke-linejoin="round" stroke="#ef4444" stroke-width="2"/>
<line x1="387.8833333333333" y1="436" x2="387.8833333333333" y2="550" stroke="#cbd5e1" stroke-width="1" stroke-dasharray="3 3"/>
<text x="389.8833333333333" y="448" font-size="9" fill="#94a3b8" font-weight="400">deploy v8.12.0</text>
<rect x="262.0" y="566" width="8" height="8" fill="#10b981" rx="1"/>
<text x="274.0" y="572" font-size="11" fill="#334155" font-weight="400">2xx</text>
<rect x="312.0" y="566" width="8" height="8" fill="#eab308" rx="1"/>
<text x="324.0" y="572" font-size="11" fill="#334155" font-weight="400">4xx</text>
<rect x="362.0" y="566" width="8" height="8" fill="#ef4444" rx="1"/>
<text x="374.0" y="572" font-size="11" fill="#334155" font-weight="400">5xx</text>
<rect x="651.6666666666667" y="386" width="405.6666666666667" height="200" fill="#ffffff" rx="8" stroke="#e5e7eb" stroke-width="1"/>
<text x="667.6666666666667" y="408" font-size="13" fill="#0f172a" font-weight="600">Latency</text>
<text x="724.6666666666667" y="408" font-size="11" fill="#64748b" font-weight="400">p50 / p95 / p99 · last 60m</text>
<text x="677.6666666666667" y="440.0" font-size="9" fill="#94a3b8" font-weight="400" text-anchor="end">1.6s</text>
<line x1="681.6666666666667" y1="436.0" x2="1041.3333333333335" y2="436.0" stroke="#f1f5f9" stroke-width="1"/>
<text x="677.6666666666667" y="468.5" font-size="9" fill="#94a3b8" font-weight="400" text-anchor="end">1.2s</text>
<line x1="681.6666666666667" y1="464.5" x2="1041.3333333333335" y2="464.5" stroke="#f1f5f9" stroke-width="1"/>
<text x="677.6666666666667" y="497.0" font-size="9" fill="#94a3b8" font-weight="400" text-anchor="end">0.8s</text>
<line x1="681.6666666666667" y1="493.0" x2="1041.3333333333335" y2="493.0" stroke="#f1f5f9" stroke-width="1"/>
<text x="677.6666666666667" y="525.5" font-size="9" fill="#94a3b8" font-weight="400" text-anchor="end">0.4s</text>
<line x1="681.6666666666667" y1="521.5" x2="1041.3333333333335" y2="521.5" stroke="#f1f5f9" stroke-width="1"/>
<text x="677.6666666666667" y="554.0" font-size="9" fill="#94a3b8" font-weight="400" text-anchor="end">0</text>
<line x1="681.6666666666667" y1="550.0" x2="1041.3333333333335" y2="550.0" stroke="#f1f5f9" stroke-width="1"/>
<path d="M 681.7 504.4 L 694.1 502.6 L 706.5 501.1 L 718.9 500.1 L 731.3 499.8 L 743.7 500.3 L 756.1 501.3 L 768.5 502.9 L 780.9 504.7 L 793.3 506.4 L 805.7 507.9 L 818.1 508.7 L 830.5 508.9 L 842.9 508.4 L 855.3 507.3 L 867.7 505.7 L 880.1 458.4 L 892.5 446.5 L 904.9 435.6 L 917.3 427.1 L 929.7 421.9 L 942.1 420.7 L 954.5 423.7 L 966.9 430.5 L 979.3 440.0 L 991.7 451.2 L 1004.1 508.2 L 1016.5 508.9 L 1028.9 508.9 L 1041.3 508.2" fill="none" stroke-linecap="round" stroke-linejoin="round" stroke="#ef4444" stroke-width="2"/>
<path d="M 681.7 529.5 L 694.1 527.8 L 706.5 526.6 L 718.9 526.1 L 731.3 526.4 L 743.7 527.4 L 756.1 529.0 L 768.5 530.7 L 780.9 532.1 L 793.3 532.8 L 805.7 532.8 L 818.1 531.9 L 830.5 530.4 L 842.9 528.7 L 855.3 527.2 L 867.7 526.3 L 880.1 526.1 L 892.5 526.7 L 904.9 528.1 L 917.3 529.7 L 929.7 531.3 L 942.1 532.5 L 954.5 532.9 L 966.9 532.5 L 979.3 531.3 L 991.7 529.7 L 1004.1 528.0 L 1016.5 526.7 L 1028.9 526.1 L 1041.3 526.3" fill="none" stroke-linecap="round" stroke-linejoin="round" stroke="#eab308" stroke-width="2"/>
<path d="M 681.7 543.2 L 694.1 542.3 L 706.5 541.5 L 718.9 541.0 L 731.3 540.9 L 743.7 541.1 L 756.1 541.6 L 768.5 542.4 L 780.9 543.3 L 793.3 544.2 L 805.7 544.9 L 818.1 545.3 L 830.5 545.4 L 842.9 545.2 L 855.3 544.6 L 867.7 543.8 L 880.1 542.9 L 892.5 542.0 L 904.9 541.4 L 917.3 541.0 L 929.7 540.9 L 942.1 541.2 L 954.5 541.8 L 966.9 542.7 L 979.3 543.6 L 991.7 544.4 L 1004.1 545.0 L 1016.5 545.4 L 1028.9 545.4 L 1041.3 545.0" fill="none" stroke-linecap="round" stroke-linejoin="round" stroke="#10b981" stroke-width="2"/>
<rect x="681.6666666666667" y="566" width="8" height="8" fill="#10b981" rx="1"/>
<text x="693.6666666666667" y="572" font-size="11" fill="#334155" font-weight="400">p50</text>
<rect x="731.6666666666667" y="566" width="8" height="8" fill="#eab308" rx="1"/>
<text x="743.6666666666667" y="572" font-size="11" fill="#334155" font-weight="400">p95</text>
<rect x="781.6666666666667" y="566" width="8" height="8" fill="#ef4444" rx="1"/>
<text x="793.6666666666667" y="572" font-size="11" fill="#334155" font-weight="400">p99</text>
<rect x="1071.3333333333335" y="386" width="405.6666666666667" height="200" fill="#ffffff" rx="8" stroke="#e5e7eb" stroke-width="1"/>
<text x="1087.3333333333335" y="408" font-size="13" fill="#0f172a" font-weight="600">Error rate</text>
<text x="1165.3333333333335" y="408" font-size="11" fill="#64748b" font-weight="400">last 60m</text>
<text x="1461.0000000000002" y="408" font-size="12" fill="#ef4444" font-weight="600" text-anchor="end">2.40%</text>
<text x="1097.3333333333335" y="440.0" font-size="9" fill="#94a3b8" font-weight="400" text-anchor="end">3%</text>
<line x1="1101.3333333333335" y1="436.0" x2="1461.0000000000002" y2="436.0" stroke="#f1f5f9" stroke-width="1"/>
<text x="1097.3333333333335" y="478.0" font-size="9" fill="#94a3b8" font-weight="400" text-anchor="end">2%</text>
<line x1="1101.3333333333335" y1="474.0" x2="1461.0000000000002" y2="474.0" stroke="#f1f5f9" stroke-width="1"/>
<text x="1097.3333333333335" y="516.0" font-size="9" fill="#94a3b8" font-weight="400" text-anchor="end">1%</text>
<line x1="1101.3333333333335" y1="512.0" x2="1461.0000000000002" y2="512.0" stroke="#f1f5f9" stroke-width="1"/>
<text x="1097.3333333333335" y="554.0" font-size="9" fill="#94a3b8" font-weight="400" text-anchor="end">0</text>
<line x1="1101.3333333333335" y1="550.0" x2="1461.0000000000002" y2="550.0" stroke="#f1f5f9" stroke-width="1"/>
<path d="M 1101.3 544.3 L 1113.7 543.6 L 1126.1 543.0 L 1138.5 542.5 L 1150.9 542.2 L 1163.3 542.0 L 1175.7 542.1 L 1188.1 542.3 L 1200.6 542.8 L 1213.0 543.3 L 1225.4 544.0 L 1237.8 544.7 L 1250.2 545.3 L 1262.6 545.9 L 1275.0 546.3 L 1287.4 546.5 L 1299.8 546.6 L 1312.2 502.4 L 1324.6 491.8 L 1337.0 480.9 L 1349.4 470.7 L 1361.8 461.9 L 1374.2 455.5 L 1386.6 452.0 L 1399.0 451.9 L 1411.4 455.0 L 1423.8 461.2 L 1436.2 469.7 L 1448.6 479.7 L 1461.0 542.8 L 1461.0 550.0 L 1101.3 550.0 Z" fill="#fee2e2" stroke-linecap="round" stroke-linejoin="round" opacity="0.55"/>
<path d="M 1101.3 544.3 L 1113.7 543.6 L 1126.1 543.0 L 1138.5 542.5 L 1150.9 542.2 L 1163.3 542.0 L 1175.7 542.1 L 1188.1 542.3 L 1200.6 542.8 L 1213.0 543.3 L 1225.4 544.0 L 1237.8 544.7 L 1250.2 545.3 L 1262.6 545.9 L 1275.0 546.3 L 1287.4 546.5 L 1299.8 546.6 L 1312.2 502.4 L 1324.6 491.8 L 1337.0 480.9 L 1349.4 470.7 L 1361.8 461.9 L 1374.2 455.5 L 1386.6 452.0 L 1399.0 451.9 L 1411.4 455.0 L 1423.8 461.2 L 1436.2 469.7 L 1448.6 479.7 L 1461.0 542.8" fill="none" stroke-linecap="round" stroke-linejoin="round" stroke="#ef4444" stroke-width="1.5"/>
<rect x="232" y="600" width="771.9" height="138" fill="#ffffff" rx="8" stroke="#e5e7eb" stroke-width="1"/>
<text x="248" y="624" font-size="13.5" fill="#0f172a" font-weight="600">Top endpoints</text>
<text x="348" y="624" font-size="11.5" fill="#64748b" font-weight="400">12 resources  ·  sorted by rate</text>
<text x="943.9" y="624" font-size="11" fill="#3b82f6" font-weight="400">View all</text>
<text x="248" y="650" font-size="9.5" fill="#94a3b8" font-weight="600" letter-spacing="1">RESOURCE</text>
<text x="622" y="650" font-size="9.5" fill="#94a3b8" font-weight="600" text-anchor="end" letter-spacing="1">TYPE</text>
<text x="672" y="650" font-size="9.5" fill="#94a3b8" font-weight="600" text-anchor="end" letter-spacing="1">RATE /S</text>
<text x="752" y="650" font-size="9.5" fill="#94a3b8" font-weight="600" text-anchor="end" letter-spacing="1">ERROR %</text>
<text x="822" y="650" font-size="9.5" fill="#94a3b8" font-weight="600" text-anchor="end" letter-spacing="1">P50</text>
<text x="882" y="650" font-size="9.5" fill="#94a3b8" font-weight="600" text-anchor="end" letter-spacing="1">P95</text>
<text x="947" y="650" font-size="9.5" fill="#94a3b8" font-weight="600" text-anchor="end" letter-spacing="1">P99</text>
<text x="987.9" y="650" font-size="9.5" fill="#94a3b8" font-weight="600" text-anchor="end" letter-spacing="1">Δ P99</text>
<line x1="248" y1="658" x2="987.9" y2="658" stroke="#f1f5f9" stroke-width="1"/>
<text x="248" y="682" font-size="11.5" fill="#0f172a" font-weight="400">SELECT charges WHERE id = $1</text>
<rect x="592" y="670" width="32" height="18" fill="#dcfce7" rx="4"/>
<text x="608" y="683" font-size="10" fill="#166534" font-weight="600" text-anchor="middle">DB</text>
<text x="672" y="682" font-size="11.5" fill="#0f172a" font-weight="400" text-anchor="end">2.8k</text>
<text x="752" y="682" font-size="11.5" fill="#0f172a" font-weight="400" text-anchor="end">0.040%</text>
<text x="822" y="682" font-size="11.5" fill="#0f172a" font-weight="400" text-anchor="end">2ms</text>
<text x="882" y="682" font-size="11.5" fill="#0f172a" font-weight="400" text-anchor="end">6ms</text>
<text x="947" y="682" font-size="11.5" fill="#0f172a" font-weight="400" text-anchor="end">14ms</text>
<text x="987.9" y="682" font-size="11" fill="#94a3b8" font-weight="600" text-anchor="end">+2%</text>
<text x="248" y="714" font-size="11.5" fill="#0f172a" font-weight="400">POST /v1/charges</text>
<rect x="592" y="702" width="32" height="18" fill="#dbeafe" rx="4"/>
<text x="608" y="715" font-size="10" fill="#3b82f6" font-weight="600" text-anchor="middle">HTTP</text>
<text x="248" y="732" font-size="10" fill="#94a3b8" font-weight="400">payment  ·  external-call</text>
<text x="672" y="714" font-size="11.5" fill="#0f172a" font-weight="400" text-anchor="end">1.8k</text>
<text x="752" y="714" font-size="11.5" fill="#eab308" font-weight="400" text-anchor="end">3.80%</text>
<text x="822" y="714" font-size="11.5" fill="#0f172a" font-weight="400" text-anchor="end">84ms</text>
<text x="882" y="714" font-size="11.5" fill="#0f172a" font-weight="400" text-anchor="end">320ms</text>
<text x="947" y="714" font-size="11.5" fill="#0f172a" font-weight="400" text-anchor="end">1.24s</text>
<text x="987.9" y="714" font-size="11" fill="#ef4444" font-weight="600" text-anchor="end">+84%</text>
<rect x="1017.9" y="600" width="459.1" height="138" fill="#ffffff" rx="8" stroke="#e5e7eb" stroke-width="1"/>
<text x="1033.9" y="624" font-size="13.5" fill="#0f172a" font-weight="600">Top errors</text>
<text x="1117.9" y="624" font-size="11" fill="#64748b" font-weight="400">6 unique  ·  last 60m</text>
<text x="1033.9" y="650" font-size="12" fill="#ef4444" font-weight="600">Stripe::APIConnectionError</text>
<text x="1461.0" y="650" font-size="12" fill="#0f172a" font-weight="700" text-anchor="end">482</text>
<text x="1461.0" y="664" font-size="9.5" fill="#94a3b8" font-weight="400" text-anchor="end">last 12s</text>
<text x="1033.9" y="666" font-size="10.5" fill="#64748b" font-weight="400">Could not establish connection to api.stripe.com</text>
<text x="1033.9" y="694" font-size="12" fill="#ef4444" font-weight="600">Stripe::CardError</text>
<text x="1461.0" y="694" font-size="12" fill="#0f172a" font-weight="700" text-anchor="end">184</text>
<text x="1461.0" y="708" font-size="9.5" fill="#94a3b8" font-weight="400" text-anchor="end">last 4s</text>
<text x="1033.9" y="710" font-size="10.5" fill="#64748b" font-weight="400">Your card was declined  ·  POST /v1/charges</text>
</svg>
